<mxfile host="app.diagrams.net" agent="Mozilla/5.0 (Windows NT 10.0; Win64; x64) AppleWebKit/537.36 (KHTML, like Gecko) Chrome/137.0.0.0 Safari/537.36" version="27.0.3">
  <diagram name="Страница — 1" id="17hMD3ROHc-cBXr3QhR6">
    <mxGraphModel dx="2243" dy="935" grid="1" gridSize="10" guides="1" tooltips="1" connect="1" arrows="1" fold="1" page="1" pageScale="1" pageWidth="900" pageHeight="1600" math="0" shadow="0">
      <root>
        <mxCell id="0" />
        <mxCell id="1" parent="0" />
        <mxCell id="Z-jK61EfhVGTSDPDhWYT-1" value="Гость" style="shape=umlActor;verticalLabelPosition=bottom;verticalAlign=top;html=1;" parent="1" vertex="1">
          <mxGeometry x="200" y="500" width="30" height="60" as="geometry" />
        </mxCell>
        <mxCell id="Z-jK61EfhVGTSDPDhWYT-2" value="Автор" style="shape=umlActor;verticalLabelPosition=bottom;verticalAlign=top;html=1;" parent="1" vertex="1">
          <mxGeometry x="200" y="847.25" width="30" height="60" as="geometry" />
        </mxCell>
        <mxCell id="Z-jK61EfhVGTSDPDhWYT-5" value="Администратор" style="shape=umlActor;verticalLabelPosition=bottom;verticalAlign=top;html=1;" parent="1" vertex="1">
          <mxGeometry x="190" y="1096.25" width="30" height="60" as="geometry" />
        </mxCell>
        <mxCell id="Z-jK61EfhVGTSDPDhWYT-6" value="Просмотр ленты постов" style="ellipse;whiteSpace=wrap;html=1;" parent="1" vertex="1">
          <mxGeometry x="948" y="480" width="190" height="40" as="geometry" />
        </mxCell>
        <mxCell id="Z-jK61EfhVGTSDPDhWYT-7" value="&lt;div class=&quot;glass_k7icd9BmH9aFeHLwMLjF&quot;&gt;&lt;div&gt;Просмотр всех постов&lt;/div&gt;&lt;/div&gt;" style="ellipse;whiteSpace=wrap;html=1;" parent="1" vertex="1">
          <mxGeometry x="747.5" y="540" width="110" height="80" as="geometry" />
        </mxCell>
        <mxCell id="Z-jK61EfhVGTSDPDhWYT-9" value="&lt;div class=&quot;glass_k7icd9BmH9aFeHLwMLjF&quot;&gt;&lt;div&gt;Просмотр поста с детальной информацией&lt;/div&gt;&lt;/div&gt;" style="ellipse;whiteSpace=wrap;html=1;" parent="1" vertex="1">
          <mxGeometry x="1015" y="700" width="210" height="70" as="geometry" />
        </mxCell>
        <mxCell id="Z-jK61EfhVGTSDPDhWYT-13" value="" style="endArrow=none;html=1;rounded=0;entryX=0;entryY=0.5;entryDx=0;entryDy=0;" parent="1" source="Z-jK61EfhVGTSDPDhWYT-1" target="Z-jK61EfhVGTSDPDhWYT-6" edge="1">
          <mxGeometry width="50" height="50" relative="1" as="geometry">
            <mxPoint x="360" y="569" as="sourcePoint" />
            <mxPoint x="400" y="509" as="targetPoint" />
          </mxGeometry>
        </mxCell>
        <mxCell id="Z-jK61EfhVGTSDPDhWYT-14" value="" style="endArrow=none;html=1;rounded=0;entryX=0.5;entryY=0;entryDx=0;entryDy=0;" parent="1" source="Z-jK61EfhVGTSDPDhWYT-1" target="Z-jK61EfhVGTSDPDhWYT-7" edge="1">
          <mxGeometry width="50" height="50" relative="1" as="geometry">
            <mxPoint x="370" y="609" as="sourcePoint" />
            <mxPoint x="420" y="559" as="targetPoint" />
            <Array as="points">
              <mxPoint x="803" y="530" />
            </Array>
          </mxGeometry>
        </mxCell>
        <mxCell id="Z-jK61EfhVGTSDPDhWYT-16" value="&lt;br&gt;&lt;div class=&quot;glass_k7icd9BmH9aFeHLwMLjF&quot;&gt;&lt;div&gt;Регистрация в системе&lt;/div&gt;&lt;/div&gt;&lt;div&gt;&lt;br&gt;&lt;/div&gt;" style="ellipse;whiteSpace=wrap;html=1;" parent="1" vertex="1">
          <mxGeometry x="470" y="280" width="180" height="50" as="geometry" />
        </mxCell>
        <mxCell id="Z-jK61EfhVGTSDPDhWYT-17" value="&lt;div class=&quot;glass_k7icd9BmH9aFeHLwMLjF&quot;&gt;&lt;div&gt;Авторизация&lt;/div&gt;&lt;/div&gt;" style="ellipse;whiteSpace=wrap;html=1;" parent="1" vertex="1">
          <mxGeometry x="500" y="380" width="140" height="60" as="geometry" />
        </mxCell>
        <mxCell id="Z-jK61EfhVGTSDPDhWYT-18" value="Написание поста" style="ellipse;whiteSpace=wrap;html=1;" parent="1" vertex="1">
          <mxGeometry x="930" y="620" width="110" height="40" as="geometry" />
        </mxCell>
        <mxCell id="Z-jK61EfhVGTSDPDhWYT-19" value="Редактирование поста" style="ellipse;whiteSpace=wrap;html=1;" parent="1" vertex="1">
          <mxGeometry x="733.75" y="963" width="137.5" height="50" as="geometry" />
        </mxCell>
        <mxCell id="Z-jK61EfhVGTSDPDhWYT-20" value="Удаление&lt;span style=&quot;background-color: transparent; color: light-dark(rgb(0, 0, 0), rgb(255, 255, 255));&quot;&gt;&amp;nbsp;поста&lt;/span&gt;" style="ellipse;whiteSpace=wrap;html=1;" parent="1" vertex="1">
          <mxGeometry x="507" y="715" width="110" height="40" as="geometry" />
        </mxCell>
        <mxCell id="Z-jK61EfhVGTSDPDhWYT-21" value="Написание комментария" style="ellipse;whiteSpace=wrap;html=1;" parent="1" vertex="1">
          <mxGeometry x="1050" y="890" width="140" height="50" as="geometry" />
        </mxCell>
        <mxCell id="Z-jK61EfhVGTSDPDhWYT-25" value="&lt;div&gt;Удаление комментария к посту&lt;/div&gt;" style="ellipse;whiteSpace=wrap;html=1;" parent="1" vertex="1">
          <mxGeometry x="1498.13" y="907.25" width="126.25" height="70" as="geometry" />
        </mxCell>
        <mxCell id="Z-jK61EfhVGTSDPDhWYT-26" value="&lt;div class=&quot;glass_k7icd9BmH9aFeHLwMLjF&quot;&gt;&lt;div&gt;Просмотр списка пользователей в системе&lt;/div&gt;&lt;/div&gt;" style="ellipse;whiteSpace=wrap;html=1;" parent="1" vertex="1">
          <mxGeometry x="470" y="1240" width="167" height="75" as="geometry" />
        </mxCell>
        <mxCell id="Z-jK61EfhVGTSDPDhWYT-28" value="Блокировка входа на время" style="ellipse;whiteSpace=wrap;html=1;" parent="1" vertex="1">
          <mxGeometry x="915" y="1260" width="95" height="62.5" as="geometry" />
        </mxCell>
        <mxCell id="Z-jK61EfhVGTSDPDhWYT-29" value="Блокировка входа навсегда" style="ellipse;whiteSpace=wrap;html=1;" parent="1" vertex="1">
          <mxGeometry x="910" y="1180" width="100" height="50" as="geometry" />
        </mxCell>
        <mxCell id="Z-jK61EfhVGTSDPDhWYT-30" value="Информационная система" style="shape=umlFrame;whiteSpace=wrap;html=1;pointerEvents=0;width=325;height=20;" parent="1" vertex="1">
          <mxGeometry x="387" y="230" width="1273" height="1140" as="geometry" />
        </mxCell>
        <mxCell id="Z-jK61EfhVGTSDPDhWYT-31" value="" style="endArrow=classic;html=1;rounded=0;" parent="1" source="Z-jK61EfhVGTSDPDhWYT-2" edge="1">
          <mxGeometry width="50" height="50" relative="1" as="geometry">
            <mxPoint x="324.58" y="609" as="sourcePoint" />
            <mxPoint x="215" y="590" as="targetPoint" />
          </mxGeometry>
        </mxCell>
        <mxCell id="Z-jK61EfhVGTSDPDhWYT-32" value="" style="endArrow=classic;html=1;rounded=0;" parent="1" source="Z-jK61EfhVGTSDPDhWYT-5" edge="1">
          <mxGeometry width="50" height="50" relative="1" as="geometry">
            <mxPoint x="324.58" y="829" as="sourcePoint" />
            <mxPoint x="200" y="590" as="targetPoint" />
            <Array as="points">
              <mxPoint x="130" y="830" />
            </Array>
          </mxGeometry>
        </mxCell>
        <mxCell id="Z-jK61EfhVGTSDPDhWYT-35" value="" style="endArrow=none;html=1;rounded=0;exitX=0;exitY=0.5;exitDx=0;exitDy=0;" parent="1" source="Z-jK61EfhVGTSDPDhWYT-16" target="Z-jK61EfhVGTSDPDhWYT-1" edge="1">
          <mxGeometry width="50" height="50" relative="1" as="geometry">
            <mxPoint x="620" y="809" as="sourcePoint" />
            <mxPoint x="670" y="759" as="targetPoint" />
          </mxGeometry>
        </mxCell>
        <mxCell id="Z-jK61EfhVGTSDPDhWYT-36" value="" style="endArrow=none;html=1;rounded=0;exitX=0;exitY=0.5;exitDx=0;exitDy=0;" parent="1" source="Z-jK61EfhVGTSDPDhWYT-17" target="Z-jK61EfhVGTSDPDhWYT-1" edge="1">
          <mxGeometry width="50" height="50" relative="1" as="geometry">
            <mxPoint x="620" y="809" as="sourcePoint" />
            <mxPoint x="670" y="759" as="targetPoint" />
            <Array as="points" />
          </mxGeometry>
        </mxCell>
        <mxCell id="Z-jK61EfhVGTSDPDhWYT-62" value="Выход из аккаунта" style="ellipse;whiteSpace=wrap;html=1;" parent="1" vertex="1">
          <mxGeometry x="403" y="1039" width="140" height="50" as="geometry" />
        </mxCell>
        <mxCell id="Z-jK61EfhVGTSDPDhWYT-65" value="" style="endArrow=none;dashed=1;html=1;rounded=0;" parent="1" target="sfZpbiEyEZoM0-ls1Cr8-11" edge="1">
          <mxGeometry width="50" height="50" relative="1" as="geometry">
            <mxPoint x="560" y="650" as="sourcePoint" />
            <mxPoint x="687.5" y="715" as="targetPoint" />
          </mxGeometry>
        </mxCell>
        <mxCell id="Z-jK61EfhVGTSDPDhWYT-66" value="" style="endArrow=none;dashed=1;html=1;rounded=0;entryX=0;entryY=0.5;entryDx=0;entryDy=0;entryPerimeter=0;" parent="1" target="sfZpbiEyEZoM0-ls1Cr8-6" edge="1">
          <mxGeometry width="50" height="50" relative="1" as="geometry">
            <mxPoint x="1120" y="831" as="sourcePoint" />
            <mxPoint x="1530" y="800" as="targetPoint" />
            <Array as="points" />
          </mxGeometry>
        </mxCell>
        <mxCell id="Z-jK61EfhVGTSDPDhWYT-69" value="" style="endArrow=none;dashed=1;html=1;rounded=0;entryX=0.452;entryY=0.024;entryDx=0;entryDy=0;entryPerimeter=0;" parent="1" target="sfZpbiEyEZoM0-ls1Cr8-13" edge="1">
          <mxGeometry width="50" height="50" relative="1" as="geometry">
            <mxPoint x="880" y="1190" as="sourcePoint" />
            <mxPoint x="1265" y="1163.1200000000001" as="targetPoint" />
            <Array as="points">
              <mxPoint x="880" y="1130" />
              <mxPoint x="1150" y="1130" />
            </Array>
          </mxGeometry>
        </mxCell>
        <mxCell id="ygxlunaKZRjCfFOAvHY0-3" value="" style="endArrow=none;dashed=1;html=1;rounded=0;entryX=0.973;entryY=0.556;entryDx=0;entryDy=0;entryPerimeter=0;" parent="1" target="sfZpbiEyEZoM0-ls1Cr8-10" edge="1">
          <mxGeometry width="50" height="50" relative="1" as="geometry">
            <mxPoint x="560" y="650" as="sourcePoint" />
            <mxPoint x="520" y="912.0000000000002" as="targetPoint" />
          </mxGeometry>
        </mxCell>
        <mxCell id="ygxlunaKZRjCfFOAvHY0-9" value="&amp;lt;&amp;lt;extend&amp;gt;&amp;gt;" style="html=1;verticalAlign=bottom;labelBackgroundColor=none;endArrow=open;endFill=0;dashed=1;rounded=0;entryX=0.802;entryY=0.875;entryDx=0;entryDy=0;exitX=0.418;exitY=-0.004;exitDx=0;exitDy=0;exitPerimeter=0;entryPerimeter=0;" parent="1" source="Z-jK61EfhVGTSDPDhWYT-9" target="Z-jK61EfhVGTSDPDhWYT-6" edge="1">
          <mxGeometry width="160" relative="1" as="geometry">
            <mxPoint x="950" y="569" as="sourcePoint" />
            <mxPoint x="1110" y="569" as="targetPoint" />
          </mxGeometry>
        </mxCell>
        <mxCell id="ygxlunaKZRjCfFOAvHY0-10" value="&amp;lt;&amp;lt;extend&amp;gt;&amp;gt;" style="html=1;verticalAlign=bottom;labelBackgroundColor=none;endArrow=open;endFill=0;dashed=1;rounded=0;entryX=1;entryY=0.5;entryDx=0;entryDy=0;exitX=0.226;exitY=0.075;exitDx=0;exitDy=0;exitPerimeter=0;" parent="1" source="Z-jK61EfhVGTSDPDhWYT-9" target="Z-jK61EfhVGTSDPDhWYT-7" edge="1">
          <mxGeometry x="0.0695" width="160" relative="1" as="geometry">
            <mxPoint x="800" y="769" as="sourcePoint" />
            <mxPoint x="960" y="769" as="targetPoint" />
            <Array as="points">
              <mxPoint x="1062" y="580" />
            </Array>
            <mxPoint as="offset" />
          </mxGeometry>
        </mxCell>
        <mxCell id="ygxlunaKZRjCfFOAvHY0-13" value="&amp;lt;&amp;lt;extend&amp;gt;&amp;gt;" style="html=1;verticalAlign=bottom;labelBackgroundColor=none;endArrow=open;endFill=0;dashed=1;rounded=0;exitX=1;exitY=0;exitDx=0;exitDy=0;entryX=0.331;entryY=0.945;entryDx=0;entryDy=0;entryPerimeter=0;" parent="1" source="Z-jK61EfhVGTSDPDhWYT-19" target="Z-jK61EfhVGTSDPDhWYT-9" edge="1">
          <mxGeometry x="-0.1617" y="-29" width="160" relative="1" as="geometry">
            <mxPoint x="670" y="789" as="sourcePoint" />
            <mxPoint x="830" y="789" as="targetPoint" />
            <mxPoint as="offset" />
          </mxGeometry>
        </mxCell>
        <mxCell id="ygxlunaKZRjCfFOAvHY0-16" value="&amp;lt;&amp;lt;extend&amp;gt;&amp;gt;" style="html=1;verticalAlign=bottom;labelBackgroundColor=none;endArrow=open;endFill=0;dashed=1;rounded=0;exitX=0.5;exitY=0;exitDx=0;exitDy=0;entryX=0.5;entryY=1;entryDx=0;entryDy=0;" parent="1" source="Z-jK61EfhVGTSDPDhWYT-21" target="Z-jK61EfhVGTSDPDhWYT-9" edge="1">
          <mxGeometry x="0.327" y="-21" width="160" relative="1" as="geometry">
            <mxPoint x="800" y="859" as="sourcePoint" />
            <mxPoint x="960" y="859" as="targetPoint" />
            <mxPoint as="offset" />
          </mxGeometry>
        </mxCell>
        <mxCell id="ygxlunaKZRjCfFOAvHY0-28" value="&amp;lt;&amp;lt;extend&amp;gt;&amp;gt;" style="html=1;verticalAlign=bottom;labelBackgroundColor=none;endArrow=open;endFill=0;dashed=1;rounded=0;entryX=1;entryY=0.5;entryDx=0;entryDy=0;" parent="1" source="Z-jK61EfhVGTSDPDhWYT-29" target="Z-jK61EfhVGTSDPDhWYT-26" edge="1">
          <mxGeometry width="160" relative="1" as="geometry">
            <mxPoint x="796.9999999999973" y="1276.25" as="sourcePoint" />
            <mxPoint x="730" y="768" as="targetPoint" />
          </mxGeometry>
        </mxCell>
        <mxCell id="ygxlunaKZRjCfFOAvHY0-34" value="" style="endArrow=none;dashed=1;html=1;rounded=0;exitX=0.5;exitY=1;exitDx=0;exitDy=0;exitPerimeter=0;" parent="1" source="sfZpbiEyEZoM0-ls1Cr8-16" edge="1">
          <mxGeometry width="50" height="50" relative="1" as="geometry">
            <mxPoint x="1116.75" y="617" as="sourcePoint" />
            <mxPoint x="950" y="890" as="targetPoint" />
          </mxGeometry>
        </mxCell>
        <mxCell id="ygxlunaKZRjCfFOAvHY0-37" value="&amp;lt;&amp;lt;extend&amp;gt;&amp;gt;" style="html=1;verticalAlign=bottom;labelBackgroundColor=none;endArrow=open;endFill=0;dashed=1;rounded=0;exitX=0.5;exitY=0;exitDx=0;exitDy=0;entryX=0.5;entryY=1;entryDx=0;entryDy=0;" parent="1" source="Z-jK61EfhVGTSDPDhWYT-19" target="Z-jK61EfhVGTSDPDhWYT-7" edge="1">
          <mxGeometry x="-0.2828" y="13" width="160" relative="1" as="geometry">
            <mxPoint x="1088" y="625" as="sourcePoint" />
            <mxPoint x="1251" y="459" as="targetPoint" />
            <mxPoint x="1" as="offset" />
          </mxGeometry>
        </mxCell>
        <mxCell id="ygxlunaKZRjCfFOAvHY0-38" value="&amp;lt;&amp;lt;extend&amp;gt;&amp;gt;" style="html=1;verticalAlign=bottom;labelBackgroundColor=none;endArrow=open;endFill=0;dashed=1;rounded=0;exitX=1;exitY=0.5;exitDx=0;exitDy=0;entryX=0;entryY=0.5;entryDx=0;entryDy=0;" parent="1" source="Z-jK61EfhVGTSDPDhWYT-20" target="Z-jK61EfhVGTSDPDhWYT-9" edge="1">
          <mxGeometry x="0.3803" y="3" width="160" relative="1" as="geometry">
            <mxPoint x="955" y="580" as="sourcePoint" />
            <mxPoint x="983" y="426" as="targetPoint" />
            <Array as="points" />
            <mxPoint as="offset" />
          </mxGeometry>
        </mxCell>
        <mxCell id="ygxlunaKZRjCfFOAvHY0-40" value="&amp;lt;&amp;lt;extend&amp;gt;&amp;gt;" style="html=1;verticalAlign=bottom;labelBackgroundColor=none;endArrow=open;endFill=0;dashed=1;rounded=0;" parent="1" source="Z-jK61EfhVGTSDPDhWYT-18" target="Z-jK61EfhVGTSDPDhWYT-7" edge="1">
          <mxGeometry width="160" relative="1" as="geometry">
            <mxPoint x="1035" y="585" as="sourcePoint" />
            <mxPoint x="983" y="426" as="targetPoint" />
          </mxGeometry>
        </mxCell>
        <mxCell id="ygxlunaKZRjCfFOAvHY0-42" value="&amp;lt;&amp;lt;extend&amp;gt;&amp;gt;" style="html=1;verticalAlign=bottom;labelBackgroundColor=none;endArrow=open;endFill=0;dashed=1;rounded=0;exitX=0.5;exitY=0;exitDx=0;exitDy=0;entryX=1;entryY=0.5;entryDx=0;entryDy=0;" parent="1" source="Z-jK61EfhVGTSDPDhWYT-25" target="Z-jK61EfhVGTSDPDhWYT-9" edge="1">
          <mxGeometry x="0.3023" width="160" relative="1" as="geometry">
            <mxPoint x="1440" y="590" as="sourcePoint" />
            <mxPoint x="1412" y="380" as="targetPoint" />
            <Array as="points">
              <mxPoint x="1556" y="735" />
            </Array>
            <mxPoint as="offset" />
          </mxGeometry>
        </mxCell>
        <mxCell id="fnM2nOC47NOJgIfxHZ4--1" value="" style="endArrow=none;html=1;rounded=0;exitX=0;exitY=0.5;exitDx=0;exitDy=0;" parent="1" source="Z-jK61EfhVGTSDPDhWYT-62" target="Z-jK61EfhVGTSDPDhWYT-2" edge="1">
          <mxGeometry width="50" height="50" relative="1" as="geometry">
            <mxPoint x="1015" y="950" as="sourcePoint" />
            <mxPoint x="330" y="929" as="targetPoint" />
            <Array as="points">
              <mxPoint x="325" y="1064" />
            </Array>
          </mxGeometry>
        </mxCell>
        <mxCell id="fnM2nOC47NOJgIfxHZ4--12" value="&amp;lt;&amp;lt;extend&amp;gt;&amp;gt;" style="html=1;verticalAlign=bottom;labelBackgroundColor=none;endArrow=open;endFill=0;dashed=1;rounded=0;entryX=0;entryY=0.5;entryDx=0;entryDy=0;exitX=0.5;exitY=0;exitDx=0;exitDy=0;" parent="1" source="Z-jK61EfhVGTSDPDhWYT-20" target="Z-jK61EfhVGTSDPDhWYT-7" edge="1">
          <mxGeometry x="0.3881" width="160" relative="1" as="geometry">
            <mxPoint x="554" y="900" as="sourcePoint" />
            <mxPoint x="750" y="610" as="targetPoint" />
            <Array as="points">
              <mxPoint x="560" y="580" />
            </Array>
            <mxPoint as="offset" />
          </mxGeometry>
        </mxCell>
        <mxCell id="fnM2nOC47NOJgIfxHZ4--13" value="" style="endArrow=none;html=1;rounded=0;entryX=0;entryY=0.5;entryDx=0;entryDy=0;" parent="1" source="Z-jK61EfhVGTSDPDhWYT-5" target="Z-jK61EfhVGTSDPDhWYT-26" edge="1">
          <mxGeometry width="50" height="50" relative="1" as="geometry">
            <mxPoint x="970" y="1090" as="sourcePoint" />
            <mxPoint x="1020" y="1040" as="targetPoint" />
          </mxGeometry>
        </mxCell>
        <mxCell id="fnM2nOC47NOJgIfxHZ4--16" value="&amp;lt;&amp;lt;include&amp;gt;&amp;gt;" style="html=1;verticalAlign=bottom;labelBackgroundColor=none;endArrow=open;endFill=0;dashed=1;rounded=0;entryX=0;entryY=0.5;entryDx=0;entryDy=0;exitX=0.725;exitY=0.972;exitDx=0;exitDy=0;exitPerimeter=0;" parent="1" source="Z-jK61EfhVGTSDPDhWYT-20" target="sfZpbiEyEZoM0-ls1Cr8-28" edge="1">
          <mxGeometry x="-0.2352" y="3" width="160" relative="1" as="geometry">
            <mxPoint x="585" y="944" as="sourcePoint" />
            <mxPoint x="1190" y="1010" as="targetPoint" />
            <Array as="points">
              <mxPoint x="588" y="1105" />
            </Array>
            <mxPoint as="offset" />
          </mxGeometry>
        </mxCell>
        <mxCell id="fnM2nOC47NOJgIfxHZ4--30" value="&amp;lt;&amp;lt;include&amp;gt;&amp;gt;" style="html=1;verticalAlign=bottom;labelBackgroundColor=none;endArrow=open;endFill=0;dashed=1;rounded=0;exitX=0.053;exitY=0.244;exitDx=0;exitDy=0;exitPerimeter=0;" parent="1" source="Z-jK61EfhVGTSDPDhWYT-29" target="sfZpbiEyEZoM0-ls1Cr8-31" edge="1">
          <mxGeometry x="-0.2021" width="160" relative="1" as="geometry">
            <mxPoint x="1110" y="1120" as="sourcePoint" />
            <mxPoint x="620.7199999999998" y="1012.8600000000001" as="targetPoint" />
            <Array as="points" />
            <mxPoint as="offset" />
          </mxGeometry>
        </mxCell>
        <mxCell id="fnM2nOC47NOJgIfxHZ4--33" value="" style="endArrow=none;dashed=1;html=1;rounded=0;exitX=0.5;exitY=0;exitDx=0;exitDy=0;exitPerimeter=0;" parent="1" source="sfZpbiEyEZoM0-ls1Cr8-12" target="Z-jK61EfhVGTSDPDhWYT-62" edge="1">
          <mxGeometry width="50" height="50" relative="1" as="geometry">
            <mxPoint x="472.9999999999998" y="1156.25" as="sourcePoint" />
            <mxPoint x="830" y="990" as="targetPoint" />
          </mxGeometry>
        </mxCell>
        <mxCell id="sfZpbiEyEZoM0-ls1Cr8-1" value="" style="endArrow=none;dashed=1;html=1;rounded=0;exitX=0.5;exitY=0;exitDx=0;exitDy=0;exitPerimeter=0;" parent="1" source="sfZpbiEyEZoM0-ls1Cr8-16" edge="1">
          <mxGeometry width="50" height="50" relative="1" as="geometry">
            <mxPoint x="1120" y="960" as="sourcePoint" />
            <mxPoint x="917" y="617" as="targetPoint" />
          </mxGeometry>
        </mxCell>
        <mxCell id="sfZpbiEyEZoM0-ls1Cr8-2" value="" style="endArrow=none;dashed=1;html=1;rounded=0;exitX=0.5;exitY=1;exitDx=0;exitDy=0;exitPerimeter=0;" parent="1" source="sfZpbiEyEZoM0-ls1Cr8-8" edge="1">
          <mxGeometry width="50" height="50" relative="1" as="geometry">
            <mxPoint x="1645.5683760745783" y="630" as="sourcePoint" />
            <mxPoint x="1500" y="740" as="targetPoint" />
          </mxGeometry>
        </mxCell>
        <mxCell id="sfZpbiEyEZoM0-ls1Cr8-6" value="Доступно автору, написать комментарий на любой пост кроме своих или ответить на чей-то комментарий у своих постов" style="shape=note;whiteSpace=wrap;html=1;backgroundOutline=1;darkOpacity=0.05;size=19;" parent="1" vertex="1">
          <mxGeometry x="1280" y="778.63" width="180" height="105" as="geometry" />
        </mxCell>
        <mxCell id="sfZpbiEyEZoM0-ls1Cr8-8" value="Доступно администратору" style="shape=note;whiteSpace=wrap;html=1;backgroundOutline=1;darkOpacity=0.05;size=21;" parent="1" vertex="1">
          <mxGeometry x="1450" y="570" width="100" height="70" as="geometry" />
        </mxCell>
        <mxCell id="sfZpbiEyEZoM0-ls1Cr8-10" value="Доступно администратору." style="shape=note;whiteSpace=wrap;html=1;backgroundOutline=1;darkOpacity=0.05;size=21;" parent="1" vertex="1">
          <mxGeometry x="400" y="609" width="107" height="75" as="geometry" />
        </mxCell>
        <mxCell id="sfZpbiEyEZoM0-ls1Cr8-11" value="Доступно автору, если это его пост и у поста нет комментариев." style="shape=note;whiteSpace=wrap;html=1;backgroundOutline=1;darkOpacity=0.05;size=24;" parent="1" vertex="1">
          <mxGeometry x="615" y="600.69" width="130" height="99.31" as="geometry" />
        </mxCell>
        <mxCell id="sfZpbiEyEZoM0-ls1Cr8-12" value="Доступно автору и администратору." style="shape=note;whiteSpace=wrap;html=1;backgroundOutline=1;darkOpacity=0.05;size=20;" parent="1" vertex="1">
          <mxGeometry x="418" y="1130" width="110" height="80" as="geometry" />
        </mxCell>
        <mxCell id="sfZpbiEyEZoM0-ls1Cr8-13" value="Если пользователь блокируется навсегда, удаляются все посты&amp;nbsp;&lt;span style=&quot;color: light-dark(rgb(0, 0, 0), rgb(255, 255, 255)); background-color: transparent;&quot;&gt;этого пользователя.&lt;/span&gt;" style="shape=note;whiteSpace=wrap;html=1;backgroundOutline=1;darkOpacity=0.05;size=22;" parent="1" vertex="1">
          <mxGeometry x="1085" y="1141.13" width="140" height="117" as="geometry" />
        </mxCell>
        <mxCell id="sfZpbiEyEZoM0-ls1Cr8-16" value="Доступно автору" style="shape=note;whiteSpace=wrap;html=1;backgroundOutline=1;darkOpacity=0.05;size=17;" parent="1" vertex="1">
          <mxGeometry x="877" y="776" width="82.5" height="68.62" as="geometry" />
        </mxCell>
        <mxCell id="sfZpbiEyEZoM0-ls1Cr8-17" value="" style="endArrow=none;dashed=1;html=1;rounded=0;entryX=0;entryY=0.5;entryDx=0;entryDy=0;entryPerimeter=0;" parent="1" target="sfZpbiEyEZoM0-ls1Cr8-16" edge="1">
          <mxGeometry width="50" height="50" relative="1" as="geometry">
            <mxPoint x="801" y="810" as="sourcePoint" />
            <mxPoint x="1120" y="850" as="targetPoint" />
          </mxGeometry>
        </mxCell>
        <mxCell id="sfZpbiEyEZoM0-ls1Cr8-26" value="&amp;lt;&amp;lt;extend&amp;gt;&amp;gt;" style="html=1;verticalAlign=bottom;labelBackgroundColor=none;endArrow=open;endFill=0;dashed=1;rounded=0;entryX=0.975;entryY=0.615;entryDx=0;entryDy=0;entryPerimeter=0;" parent="1" source="Z-jK61EfhVGTSDPDhWYT-28" target="Z-jK61EfhVGTSDPDhWYT-26" edge="1">
          <mxGeometry width="160" relative="1" as="geometry">
            <mxPoint x="924" y="1225" as="sourcePoint" />
            <mxPoint x="647" y="1288" as="targetPoint" />
          </mxGeometry>
        </mxCell>
        <mxCell id="sfZpbiEyEZoM0-ls1Cr8-28" value="&lt;div&gt;Удаление всех комментариев к посту&lt;/div&gt;" style="ellipse;whiteSpace=wrap;html=1;" parent="1" vertex="1">
          <mxGeometry x="1506.2600000000002" y="1060" width="110" height="81.13" as="geometry" />
        </mxCell>
        <mxCell id="sfZpbiEyEZoM0-ls1Cr8-30" value="&amp;lt;&amp;lt;include&amp;gt;&amp;gt;" style="html=1;verticalAlign=bottom;labelBackgroundColor=none;endArrow=open;endFill=0;dashed=1;rounded=0;entryX=0.5;entryY=1;entryDx=0;entryDy=0;exitX=0.5;exitY=0;exitDx=0;exitDy=0;" parent="1" source="sfZpbiEyEZoM0-ls1Cr8-28" target="Z-jK61EfhVGTSDPDhWYT-25" edge="1">
          <mxGeometry x="-0.2749" y="31" width="160" relative="1" as="geometry">
            <mxPoint x="1230" y="1090" as="sourcePoint" />
            <mxPoint x="1390" y="1090" as="targetPoint" />
            <mxPoint as="offset" />
          </mxGeometry>
        </mxCell>
        <mxCell id="sfZpbiEyEZoM0-ls1Cr8-31" value="Удаление всех постов автора" style="ellipse;whiteSpace=wrap;html=1;" parent="1" vertex="1">
          <mxGeometry x="600" y="1156.25" width="102.5" height="70" as="geometry" />
        </mxCell>
        <mxCell id="sfZpbiEyEZoM0-ls1Cr8-33" value="&amp;lt;&amp;lt;include&amp;gt;&amp;gt;" style="html=1;verticalAlign=bottom;labelBackgroundColor=none;endArrow=open;endFill=0;dashed=1;rounded=0;exitX=0;exitY=0.5;exitDx=0;exitDy=0;" parent="1" source="sfZpbiEyEZoM0-ls1Cr8-31" edge="1">
          <mxGeometry x="0.1369" y="40" width="160" relative="1" as="geometry">
            <mxPoint x="925" y="1202" as="sourcePoint" />
            <mxPoint x="558" y="754" as="targetPoint" />
            <Array as="points">
              <mxPoint x="560" y="1190" />
            </Array>
            <mxPoint as="offset" />
          </mxGeometry>
        </mxCell>
        <mxCell id="sfZpbiEyEZoM0-ls1Cr8-34" value="" style="endArrow=none;dashed=1;html=1;rounded=0;entryX=0.5;entryY=1;entryDx=0;entryDy=0;entryPerimeter=0;" parent="1" target="sfZpbiEyEZoM0-ls1Cr8-35" edge="1">
          <mxGeometry width="50" height="50" relative="1" as="geometry">
            <mxPoint x="1135" y="1100" as="sourcePoint" />
            <mxPoint x="1180" y="1030" as="targetPoint" />
          </mxGeometry>
        </mxCell>
        <mxCell id="sfZpbiEyEZoM0-ls1Cr8-35" value="При удалении поста админом удаляются все комментарии к этому посту" style="shape=note;whiteSpace=wrap;html=1;backgroundOutline=1;darkOpacity=0.05;size=17;" parent="1" vertex="1">
          <mxGeometry x="1070" y="970" width="130" height="97" as="geometry" />
        </mxCell>
      </root>
    </mxGraphModel>
  </diagram>
</mxfile>
